<svg xmlns="http://www.w3.org/2000/svg" width="800" height="600" viewBox="0 0 800 600"><rect width="100%" height="100%" fill="#e2e8f0"/><path fill="#64748b" d="m182.805 283.19-1.5 2.85q-.27.48-.58.69-.3.21-.75.21-.47 0-1.02-.35-.56-.34-1.32-.77-.77-.43-1.79-.78-1.02-.35-2.42-.35-1.26 0-2.2.31-.95.3-1.59.84-.64.54-.96 1.29-.31.76-.31 1.66 0 1.15.64 1.91t1.7 1.31q1.06.54 2.41.96 1.35.43 2.76.91 1.42.49 2.77 1.13 1.35.64 2.41 1.62 1.06.98 1.7 2.4.64 1.41.64 3.44 0 2.2-.75 4.13-.76 1.92-2.21 3.35-1.45 1.43-3.54 2.25-2.1.82-4.8.82-1.55 0-3.06-.3-1.5-.31-2.89-.87-1.38-.56-2.6-1.35-1.21-.79-2.16-1.76l1.78-2.9q.23-.31.59-.53.36-.21.76-.21.56 0 1.22.46.65.46 1.55 1.02.9.57 2.1 1.03 1.21.46 2.89.46 2.59 0 4.01-1.23 1.42-1.22 1.42-3.52 0-1.28-.64-2.09-.65-.81-1.7-1.36-1.06-.55-2.41-.93-1.35-.39-2.75-.84-1.39-.45-2.74-1.08-1.35-.63-2.41-1.64-1.06-1.01-1.7-2.53-.64-1.52-.64-3.75 0-1.77.71-3.46t2.06-3q1.35-1.3 3.33-2.09 1.98-.78 4.54-.78 2.88 0 5.31.9 2.43.9 4.14 2.52Zm5.16 6.38h5.58v23.09h-5.58v-23.09Zm6.34-6.72q0 .72-.29 1.35-.29.63-.78 1.1-.48.47-1.13.75-.66.29-1.4.29-.72 0-1.36-.29-.64-.28-1.11-.75-.48-.47-.76-1.1-.28-.63-.28-1.35 0-.74.28-1.4.28-.65.76-1.12.47-.47 1.11-.76.64-.28 1.36-.28.74 0 1.4.28.65.29 1.13.76.49.47.78 1.12.29.66.29 1.4Zm21.49 6.72v2.3q0 .59-.2 1.15-.21.56-.54.92l-10.96 14.45h11.36v4.27h-17.82v-2.32q0-.38.18-.91t.54-1l11.07-14.6h-11.14v-4.26h17.51Zm8.48 8.89h10.49q0-1.08-.31-2.03-.3-.96-.91-1.68-.61-.72-1.54-1.14-.93-.41-2.17-.41-2.41 0-3.79 1.37-1.39 1.37-1.77 3.89Zm14.18 3.36h-14.29q.13 1.77.63 3.07.49 1.29 1.3 2.13.81.85 1.93 1.26 1.11.42 2.46.42 1.35 0 2.33-.31.98-.32 1.71-.7.73-.38 1.28-.7.55-.31 1.07-.31.7 0 1.04.51l1.59 2.03q-.92 1.08-2.07 1.81-1.14.73-2.39 1.17-1.25.44-2.54.62-1.3.18-2.51.18-2.41 0-4.48-.8-2.07-.8-3.6-2.36-1.53-1.57-2.41-3.87-.88-2.31-.88-5.35 0-2.36.77-4.44.76-2.08 2.19-3.62t3.49-2.44q2.06-.91 4.65-.91 2.18 0 4.02.7 1.85.7 3.18 2.04 1.32 1.34 2.08 3.28.75 1.95.75 4.45 0 1.26-.27 1.7-.27.44-1.03.44Zm39.62 3.17q.49 0 .88.38l2.38 2.59q-1.98 2.45-4.87 3.76-2.89 1.3-6.94 1.3-3.62 0-6.51-1.24-2.9-1.23-4.94-3.44-2.05-2.2-3.14-5.26-1.09-3.06-1.09-6.69 0-3.66 1.17-6.71t3.29-5.26q2.13-2.2 5.08-3.43 2.94-1.22 6.52-1.22 3.56 0 6.31 1.17 2.76 1.17 4.69 3.06l-2.02 2.81q-.18.27-.46.47-.28.2-.78.2-.34 0-.7-.19-.36-.19-.78-.47-.43-.28-.99-.62-.57-.34-1.31-.62-.74-.28-1.72-.47-.98-.19-2.26-.19-2.18 0-3.99.77-1.82.78-3.12 2.25-1.31 1.48-2.03 3.6-.72 2.13-.72 4.85 0 2.75.78 4.89.78 2.13 2.1 3.59 1.33 1.47 3.13 2.24 1.8.78 3.87.78 1.24 0 2.24-.14 1-.13 1.85-.42.84-.3 1.59-.76.76-.46 1.5-1.13.22-.2.47-.33.25-.12.52-.12Zm12.1-25.77v12.83q1.35-1.26 2.97-2.05 1.62-.79 3.81-.79 1.89 0 3.35.65 1.46.64 2.44 1.8.98 1.16 1.49 2.76.5 1.61.5 3.55v14.69h-5.56v-14.69q0-2.12-.96-3.28-.97-1.16-2.95-1.16-1.44 0-2.7.66-1.26.65-2.39 1.77v16.7h-5.55v-33.44h5.55Zm32.02 27.48v-3.9q-2.41.12-4.05.42-1.64.31-2.63.78-.99.47-1.42 1.1-.43.63-.43 1.37 0 1.47.87 2.1.87.63 2.26.63 1.71 0 2.96-.62t2.44-1.88Zm-11.74-12.13-.99-1.78q3.98-3.64 9.58-3.64 2.03 0 3.62.66 1.6.67 2.7 1.85 1.11 1.18 1.68 2.82.57 1.64.57 3.6v14.58h-2.52q-.78 0-1.21-.24-.43-.23-.68-.95l-.49-1.67q-.88.79-1.71 1.39-.83.59-1.73 1-.9.4-1.93.62-1.02.21-2.26.21-1.46 0-2.7-.39-1.24-.4-2.14-1.18-.9-.79-1.39-1.96-.5-1.17-.5-2.72 0-.88.3-1.75.29-.86.95-1.65.67-.79 1.72-1.49 1.06-.69 2.6-1.21t3.59-.85q2.05-.32 4.68-.39v-1.35q0-2.32-.99-3.43-.99-1.12-2.86-1.12-1.35 0-2.23.32-.89.31-1.57.71l-1.22.71q-.56.31-1.23.31-.59 0-.99-.3-.41-.3-.65-.71Zm27.29-3.6.34 2.61q1.08-2.07 2.56-3.25 1.49-1.18 3.51-1.18 1.6 0 2.57.7l-.36 4.16q-.12.4-.33.57-.21.17-.57.17-.34 0-1-.11-.67-.11-1.3-.11-.92 0-1.64.27-.72.27-1.29.77-.58.51-1.02 1.23-.44.72-.82 1.64v14.22h-5.56v-23.09h3.27q.85 0 1.19.31.34.3.45 1.09Zm19.57 22.05q-3.01 0-4.62-1.7-1.61-1.7-1.61-4.69v-12.89h-2.36q-.45 0-.77-.29-.31-.3-.31-.88v-2.21l3.71-.6 1.17-6.3q.11-.45.43-.7.31-.25.81-.25h2.88v7.27h6.16v3.96h-6.16v12.51q0 1.08.53 1.69.53.6 1.45.6.52 0 .87-.12.34-.13.6-.26.26-.13.46-.26.21-.12.41-.12.25 0 .4.12.16.13.34.37l1.67 2.7q-1.22 1.02-2.79 1.53-1.58.52-3.27.52Zm43.2-8.03q.5 0 .88.38l2.39 2.59q-1.98 2.45-4.87 3.76-2.9 1.3-6.95 1.3-3.62 0-6.51-1.24-2.89-1.23-4.94-3.44-2.05-2.2-3.14-5.26-1.09-3.06-1.09-6.69 0-3.66 1.17-6.71t3.3-5.26q2.12-2.2 5.07-3.43 2.95-1.22 6.53-1.22 3.55 0 6.31 1.17 2.75 1.17 4.69 3.06l-2.03 2.81q-.18.27-.46.47-.28.2-.77.2-.34 0-.7-.19-.36-.19-.79-.47-.43-.28-.99-.62-.56-.34-1.3-.62-.75-.28-1.72-.47-.98-.19-2.27-.19-2.18 0-3.99.77-1.81.78-3.12 2.25-1.3 1.48-2.02 3.6-.72 2.13-.72 4.85 0 2.75.78 4.89.77 2.13 2.1 3.59 1.33 1.47 3.13 2.24 1.8.78 3.87.78 1.23 0 2.24-.14 1-.13 1.84-.42.84-.3 1.6-.76.75-.46 1.49-1.13.23-.2.48-.33.24-.12.51-.12Zm16.77-15.78q2.56 0 4.67.84 2.1.83 3.6 2.36 1.49 1.53 2.3 3.73.81 2.21.81 4.93 0 2.75-.81 4.95-.81 2.21-2.3 3.76-1.5 1.55-3.6 2.39-2.11.83-4.67.83-2.59 0-4.71-.83-2.11-.84-3.61-2.39-1.49-1.55-2.31-3.76-.83-2.2-.83-4.95 0-2.72.83-4.93.82-2.2 2.31-3.73 1.5-1.53 3.61-2.36 2.12-.84 4.71-.84Zm0 19.51q2.88 0 4.26-1.93 1.38-1.94 1.38-5.67 0-3.74-1.38-5.69-1.38-1.96-4.26-1.96-2.93 0-4.33 1.97-1.41 1.97-1.41 5.68t1.41 5.66q1.4 1.94 4.33 1.94Zm21.19 3.94h-5.56v-23.09h3.4q1.08 0 1.42 1.02l.36 1.71q.61-.68 1.27-1.24.66-.56 1.42-.97.75-.4 1.62-.64.86-.24 1.9-.24 2.18 0 3.59 1.19 1.4 1.18 2.1 3.13.54-1.14 1.35-1.96.81-.82 1.78-1.34.97-.52 2.06-.77t2.19-.25q1.91 0 3.4.59 1.48.59 2.5 1.71 1.01 1.13 1.54 2.75.53 1.61.53 3.71v14.69h-5.56v-14.69q0-2.21-.97-3.32-.97-1.12-2.83-1.12-.86 0-1.59.3-.73.29-1.28.84t-.87 1.38q-.31.84-.31 1.92v14.69h-5.58v-14.69q0-2.32-.94-3.38-.93-1.06-2.73-1.06-1.22 0-2.26.6-1.05.6-1.95 1.63v16.9Zm32.31-23.09h5.58v23.09h-5.58v-23.09Zm6.35-6.72q0 .72-.3 1.35-.29.63-.77 1.1-.49.47-1.14.75-.65.29-1.39.29-.72 0-1.36-.29-.65-.28-1.12-.75-.47-.47-.75-1.1-.28-.63-.28-1.35 0-.74.28-1.4.28-.65.75-1.12.47-.47 1.12-.76.64-.28 1.36-.28.74 0 1.39.28.65.29 1.14.76.48.47.77 1.12.3.66.3 1.4Zm9.72 7.74.38 1.82q.7-.7 1.47-1.29.78-.6 1.65-1.02.86-.41 1.85-.65.99-.24 2.16-.24 1.89 0 3.35.65 1.47.64 2.45 1.8.97 1.16 1.48 2.76.51 1.61.51 3.55v14.69h-5.56v-14.69q0-2.12-.97-3.28-.97-1.16-2.95-1.16-1.44 0-2.7.66-1.26.65-2.38 1.77v16.7h-5.56v-23.09h3.4q1.08 0 1.42 1.02Zm29 9.96q1.03 0 1.8-.28.76-.28 1.27-.77.51-.5.77-1.19.25-.7.25-1.53 0-1.71-1.02-2.72-1.02-1-3.07-1t-3.07 1q-1.03 1.01-1.03 2.72 0 .81.26 1.5.26.7.77 1.21.5.5 1.28.78t1.79.28Zm6.28 13.14q0-.67-.41-1.1-.4-.42-1.1-.66-.7-.24-1.63-.35-.94-.11-1.98-.17-1.05-.05-2.16-.1-1.12-.05-2.17-.18-.93.52-1.5 1.21-.57.7-.57 1.62 0 .61.3 1.14.3.53.97.91.66.38 1.72.6 1.06.21 2.59.21 1.55 0 2.67-.23 1.13-.24 1.86-.66.73-.41 1.07-.99.34-.57.34-1.25Zm-1.11-23.33h6.64v2.07q0 .99-1.19 1.22l-2.07.38q.47 1.19.47 2.61 0 1.71-.68 3.09-.69 1.39-1.91 2.36-1.21.96-2.86 1.49-1.66.53-3.57.53-.68 0-1.31-.07t-1.23-.18q-1.08.66-1.08 1.47 0 .69.64 1.02.64.33 1.7.46 1.05.14 2.4.17 1.35.03 2.77.14 1.42.12 2.77.4t2.41.89q1.05.6 1.7 1.65.64 1.05.64 2.69 0 1.53-.76 2.97-.75 1.44-2.18 2.57-1.43 1.12-3.51 1.81-2.08.68-4.74.68-2.61 0-4.54-.5-1.94-.51-3.22-1.35-1.28-.85-1.91-1.95-.63-1.1-.63-2.3 0-1.62.98-2.71.98-1.09 2.69-1.74-.93-.47-1.47-1.26-.54-.79-.54-2.07 0-.52.2-1.07.19-.55.56-1.09.37-.54.93-1.02.56-.49 1.33-.87-1.76-.94-2.76-2.52-1-1.57-1-3.69 0-1.71.69-3.09.68-1.39 1.91-2.37 1.23-.97 2.9-1.49 1.68-.52 3.66-.52 1.48 0 2.79.3 1.3.31 2.38.89Zm40.8-7.17-1.51 2.85q-.27.48-.57.69-.31.21-.76.21-.47 0-1.02-.35-.55-.34-1.32-.77-.76-.43-1.79-.78-1.02-.35-2.42-.35-1.26 0-2.2.31-.95.3-1.59.84-.64.54-.95 1.29-.32.76-.32 1.66 0 1.15.64 1.91t1.7 1.31q1.06.54 2.41.96 1.35.43 2.77.91 1.41.49 2.76 1.13 1.35.64 2.41 1.62 1.06.98 1.7 2.4.64 1.41.64 3.44 0 2.2-.75 4.13-.76 1.92-2.21 3.35-1.45 1.43-3.54 2.25-2.09.82-4.79.82-1.56 0-3.06-.3-1.51-.31-2.89-.87-1.39-.56-2.6-1.35-1.22-.79-2.16-1.76l1.77-2.9q.23-.31.59-.53.36-.21.76-.21.57 0 1.22.46t1.55 1.02q.9.57 2.11 1.03 1.2.46 2.89.46 2.58 0 4-1.23 1.42-1.22 1.42-3.52 0-1.28-.64-2.09-.64-.81-1.7-1.36t-2.41-.93q-1.35-.39-2.74-.84-1.4-.45-2.75-1.08-1.35-.63-2.41-1.64-1.05-1.01-1.69-2.53-.65-1.52-.65-3.75 0-1.77.71-3.46t2.06-3q1.35-1.3 3.33-2.09 1.98-.78 4.55-.78 2.88 0 5.31.9 2.43.9 4.14 2.52Zm15.18 6.02q2.57 0 4.67.84 2.11.83 3.6 2.36 1.5 1.53 2.31 3.73.81 2.21.81 4.93 0 2.75-.81 4.95-.81 2.21-2.31 3.76-1.49 1.55-3.6 2.39-2.1.83-4.67.83-2.58 0-4.7-.83-2.11-.84-3.61-2.39-1.5-1.55-2.32-3.76-.82-2.2-.82-4.95 0-2.72.82-4.93.82-2.2 2.32-3.73 1.5-1.53 3.61-2.36 2.12-.84 4.7-.84Zm0 19.51q2.88 0 4.27-1.93 1.38-1.94 1.38-5.67 0-3.74-1.38-5.69-1.39-1.96-4.27-1.96-2.92 0-4.33 1.97-1.4 1.97-1.4 5.68t1.4 5.66q1.41 1.94 4.33 1.94Zm25.86-19.51q2.56 0 4.67.84 2.1.83 3.6 2.36 1.49 1.53 2.3 3.73.81 2.21.81 4.93 0 2.75-.81 4.95-.81 2.21-2.3 3.76-1.5 1.55-3.6 2.39-2.11.83-4.67.83-2.59 0-4.71-.83-2.11-.84-3.61-2.39-1.49-1.55-2.31-3.76-.83-2.2-.83-4.95 0-2.72.83-4.93.82-2.2 2.31-3.73 1.5-1.53 3.61-2.36 2.12-.84 4.71-.84Zm0 19.51q2.88 0 4.26-1.93 1.38-1.94 1.38-5.67 0-3.74-1.38-5.69-1.38-1.96-4.26-1.96-2.93 0-4.33 1.97-1.41 1.97-1.41 5.68t1.41 5.66q1.4 1.94 4.33 1.94Zm20.45-18.13.38 1.82q.7-.7 1.48-1.29.77-.6 1.64-1.02.86-.41 1.85-.65.99-.24 2.16-.24 1.89 0 3.36.65 1.46.64 2.44 1.8.98 1.16 1.48 2.76.51 1.61.51 3.55v14.69h-5.56v-14.69q0-2.12-.97-3.28-.96-1.16-2.94-1.16-1.44 0-2.7.66-1.26.65-2.39 1.77v16.7h-5.56v-23.09h3.4q1.08 0 1.42 1.02Z"/></svg>